<?xml version="1.0" encoding="UTF-8" standalone="no"?>
<!-- Generator: Adobe Illustrator 16.0.0, SVG Export Plug-In . SVG Version: 6.00 Build 0)  -->

<svg
   version="1.1"
   id="图层_1"
   x="0px"
   y="0px"
   width="139.76401"
   height="200"
   viewBox="0 0 139.764 200"
   enable-background="new 0 0 714 341"
   xml:space="preserve"
   sodipodi:docname="3p.svg"
   inkscape:version="1.3.2 (091e20ef0f, 2023-11-25)"
   xmlns:inkscape="http://www.inkscape.org/namespaces/inkscape"
   xmlns:sodipodi="http://sodipodi.sourceforge.net/DTD/sodipodi-0.dtd"
   xmlns="http://www.w3.org/2000/svg"
   xmlns:svg="http://www.w3.org/2000/svg"
   xmlns:rdf="http://www.w3.org/1999/02/22-rdf-syntax-ns#"
   xmlns:cc="http://creativecommons.org/ns#"
   xmlns:dc="http://purl.org/dc/elements/1.1/"><metadata
   id="metadata621"><rdf:RDF><cc:Work
       rdf:about=""><dc:format>image/svg+xml</dc:format><dc:type
         rdf:resource="http://purl.org/dc/dcmitype/StillImage" /></cc:Work></rdf:RDF></metadata><defs
   id="defs619" /><sodipodi:namedview
   pagecolor="#ffffff"
   bordercolor="#666666"
   borderopacity="1"
   objecttolerance="10"
   gridtolerance="10"
   guidetolerance="10"
   inkscape:pageopacity="0"
   inkscape:pageshadow="2"
   inkscape:window-width="1916"
   inkscape:window-height="1041"
   id="namedview617"
   showgrid="false"
   inkscape:zoom="2.8077144"
   inkscape:cx="59.300903"
   inkscape:cy="95.985545"
   inkscape:window-x="0"
   inkscape:window-y="18"
   inkscape:window-maximized="1"
   inkscape:current-layer="g1683"
   inkscape:showpageshadow="0"
   inkscape:pagecheckerboard="0"
   inkscape:deskcolor="#d1d1d1" />



















































































































































































































































































































<g
   transform="matrix(4.0332338,0,0,4.0332338,-683.6291,-611.50277)"
   id="g1683"><path
     inkscape:connector-curvature="0"
     id="path142"
     d="m 204.151,155.2 v 42.419 c 0,0.995 -0.349,1.842 -1.045,2.539 -0.697,0.697 -1.544,1.046 -2.54,1.046 h -27.483 c -0.996,0 -1.842,-0.349 -2.539,-1.046 -0.697,-0.697 -1.045,-1.544 -1.045,-2.539 V 155.2 c 0,-0.995 0.348,-1.842 1.045,-2.539 0.697,-0.697 1.543,-1.045 2.539,-1.045 h 27.483 c 0.996,0 1.842,0.349 2.54,1.045 0.696,0.697 1.045,1.544 1.045,2.539 z m -3.585,-1.792 h -27.483 c -0.518,0 -0.946,0.17 -1.284,0.508 -0.339,0.339 -0.508,0.768 -0.508,1.285 v 42.419 c 0,0.517 0.169,0.946 0.508,1.285 0.338,0.338 0.766,0.508 1.284,0.508 h 27.483 c 0.518,0 0.946,-0.17 1.285,-0.508 0.338,-0.339 0.508,-0.768 0.508,-1.285 V 155.2 c 0,-0.517 -0.17,-0.946 -0.508,-1.285 -0.339,-0.337 -0.768,-0.507 -1.285,-0.507 z" /><path
     style="fill:#00082d;stroke-width:1.1"
     inkscape:connector-curvature="0"
     id="path144"
     d="m 191.2283,172.0067 c 1.2265,1.2265 1.8403,2.6939 1.8403,4.4033 0,1.7083 -0.6138,3.1768 -1.8403,4.4033 -1.2276,1.2265 -2.695,1.8403 -4.4033,1.8403 -1.7083,0 -3.1768,-0.6138 -4.4033,-1.8403 -1.2276,-1.2265 -1.8403,-2.695 -1.8403,-4.4033 0,-1.7094 0.6127,-3.1768 1.8403,-4.4033 1.2265,-1.2265 2.695,-1.8403 4.4033,-1.8403 1.7083,0 3.1757,0.6138 4.4033,1.8403 z m -0.6908,8.1158 c 1.0296,-1.0285 1.5444,-2.2671 1.5444,-3.7125 0,-1.4465 -0.5159,-2.6829 -1.5444,-3.7136 -1.0296,-1.0285 -2.2671,-1.5444 -3.7125,-1.5444 -1.4454,0 -2.684,0.5159 -3.7136,1.5444 -1.0296,1.0307 -1.5444,2.2671 -1.5444,3.7136 0,1.4454 0.5148,2.684 1.5444,3.7125 1.0296,1.0307 2.2682,1.5444 3.7136,1.5444 1.4454,0 2.6829,-0.5137 3.7125,-1.5444 z" /><path
     style="fill:#870000;stroke-width:1.1"
     inkscape:connector-curvature="0"
     id="path146"
     d="m 190.0778,173.15725 c 0.8976,0.8976 1.3475,1.9833 1.3475,3.2538 0,1.2705 -0.4499,2.3562 -1.3475,3.2527 -0.8987,0.8987 -1.9833,1.3475 -3.2538,1.3475 -1.2716,0 -2.3562,-0.4488 -3.2538,-1.3475 -0.8987,-0.8965 -1.3475,-1.9822 -1.3475,-3.2527 0,-1.2705 0.4488,-2.3551 1.3475,-3.2538 0.8976,-0.8976 1.9822,-1.3475 3.2538,-1.3475 1.2705,0 2.3551,0.4499 3.2538,1.3475 z m -5.225,3.3187 c 0,-0.2629 0.022,-0.4818 0.066,-0.6578 0.0429,-0.1738 0.1089,-0.3498 0.1969,-0.5258 0.0869,-0.1749 0.1529,-0.3058 0.1969,-0.3949 l -0.7227,-1.0516 h -0.7887 c -0.6149,0.7458 -0.9207,1.6005 -0.9207,2.5641 v 0.2629 l 0.5918,0.4598 1.2485,-0.3938 z m 1.0516,3.7455 0.5918,-0.3938 v -1.3145 l -0.1969,-0.198 c -0.4818,-0.132 -0.8536,-0.3938 -1.1176,-0.7887 l -0.2629,-0.132 -1.1836,0.3938 -0.2629,0.7238 c 0.5269,0.8778 1.3365,1.4465 2.4321,1.7094 z m -0.5258,-7.4921 -0.2629,0.7227 0.7227,1.0516 h 0.2629 c 0.1749,-0.0429 0.4158,-0.066 0.7227,-0.066 0.3058,0 0.5478,0.0231 0.7227,0.066 h 0.2629 l 0.7227,-1.0516 -0.2629,-0.7227 c -0.5258,-0.1738 -1.0087,-0.2629 -1.4454,-0.2629 -0.4378,0 -0.9196,0.0891 -1.4454,0.2629 z m 2.3661,4.6002 c 0.2629,-0.2629 0.3938,-0.5687 0.3938,-0.9196 0,-0.3498 -0.132,-0.6578 -0.3938,-0.9196 -0.2618,-0.2618 -0.5698,-0.3938 -0.9196,-0.3938 -0.3509,0 -0.6567,0.132 -0.9196,0.3938 -0.2629,0.2629 -0.3938,0.5698 -0.3938,0.9196 0,0.3509 0.132,0.6567 0.3938,0.9196 0.2629,0.2629 0.5687,0.3949 0.9196,0.3949 0.3498,0 0.6567,-0.132 0.9196,-0.3949 z m -0.9196,-1.5763 c 0.4367,0 0.6578,0.22 0.6578,0.6578 0,0.4378 -0.22,0.6567 -0.6578,0.6567 -0.4378,0 -0.6567,-0.2189 -0.6567,-0.6567 0,-0.4389 0.2178,-0.6578 0.6567,-0.6578 z m 1.9052,1.6423 c -0.6567,0.5698 -1.1825,0.9427 -1.5774,1.1176 v 1.3145 l 0.5918,0.3938 c 1.0945,-0.2629 1.9052,-0.8316 2.431,-1.7083 l -0.2629,-0.7238 z m 0.066,-0.9196 0.132,0.2629 1.2485,0.3938 0.5918,-0.4598 v -0.2629 c 0,-0.9636 -0.3069,-1.8172 -0.9207,-2.5641 h -0.7887 l -0.7227,1.0516 c 0.0429,0.0891 0.1089,0.22 0.1969,0.3949 0.088,0.1749 0.1529,0.3509 0.1969,0.5258 0.044,0.176 0.066,0.3949 0.066,0.6578 z" /><path
     style="fill:#00082d;stroke-width:1.1"
     inkscape:connector-curvature="0"
     id="path1"
     d="m 184.0583,158.5637 c 1.2265,1.2265 1.8403,2.6939 1.8403,4.4033 0,1.7083 -0.6138,3.1768 -1.8403,4.4033 -1.2276,1.2276 -2.695,1.8403 -4.4033,1.8403 -1.7094,0 -3.1779,-0.6127 -4.4033,-1.8403 -1.2276,-1.2265 -1.8403,-2.695 -1.8403,-4.4033 0,-1.7094 0.6127,-3.1768 1.8403,-4.4033 1.2254,-1.2265 2.6939,-1.8403 4.4033,-1.8403 1.7083,0 3.1757,0.6149 4.4033,1.8403 z m -0.6897,8.1169 c 1.0296,-1.0296 1.5444,-2.2671 1.5444,-3.7125 0,-1.4465 -0.5148,-2.6829 -1.5444,-3.7125 -1.0296,-1.0296 -2.2671,-1.5444 -3.7125,-1.5444 -1.4454,0 -2.684,0.5159 -3.7125,1.5444 -1.0307,1.0296 -1.5444,2.2671 -1.5444,3.7125 0,1.4454 0.5148,2.684 1.5444,3.7125 1.0285,1.0307 2.2671,1.5444 3.7125,1.5444 1.4454,0 2.6829,-0.5148 3.7125,-1.5444 z m -0.4598,-6.9663 c 0.8976,0.8976 1.3475,1.9833 1.3475,3.2538 0,1.2705 -0.4499,2.3562 -1.3475,3.2538 -0.8987,0.8976 -1.9833,1.3475 -3.2538,1.3475 -1.2716,0 -2.3562,-0.4488 -3.2538,-1.3475 -0.8987,-0.8976 -1.3475,-1.9822 -1.3475,-3.2538 0,-1.2705 0.4488,-2.3551 1.3475,-3.2538 0.8976,-0.8976 1.9822,-1.3475 3.2538,-1.3475 1.2705,0 2.3551,0.4499 3.2538,1.3475 z m -5.225,3.3187 c 0,-0.2629 0.022,-0.4818 0.066,-0.6578 0.0429,-0.1738 0.1089,-0.3498 0.1969,-0.5258 0.088,-0.1749 0.154,-0.3058 0.1969,-0.3949 l -0.7227,-1.0516 h -0.7887 c -0.6138,0.7458 -0.9196,1.6005 -0.9196,2.5641 v 0.2629 l 0.5918,0.4598 1.2485,-0.3938 z m 1.0516,3.7466 0.5918,-0.3938 v -1.3145 l -0.1969,-0.198 c -0.4829,-0.132 -0.8547,-0.3938 -1.1176,-0.7887 l -0.2629,-0.1309 -1.1836,0.3938 -0.2629,0.7238 c 0.5258,0.8756 1.3365,1.4443 2.4321,1.7083 z m -0.5258,-7.4932 -0.2629,0.7238 0.7227,1.0516 h 0.2629 c 0.1749,-0.0429 0.4158,-0.066 0.7227,-0.066 0.3058,0 0.5478,0.0231 0.7227,0.066 h 0.2629 l 0.7227,-1.0516 -0.2629,-0.7238 c -0.5258,-0.1738 -1.0087,-0.2629 -1.4454,-0.2629 -0.4378,0 -0.9196,0.0891 -1.4454,0.2629 z m 2.3661,4.6013 c 0.2629,-0.2629 0.3938,-0.5687 0.3938,-0.9196 0,-0.3498 -0.132,-0.6578 -0.3938,-0.9196 -0.2629,-0.2629 -0.5698,-0.3938 -0.9196,-0.3938 -0.3509,0 -0.6578,0.132 -0.9196,0.3938 -0.2629,0.2629 -0.3938,0.5698 -0.3938,0.9196 0,0.3509 0.1309,0.6567 0.3938,0.9196 0.2629,0.2629 0.5687,0.3938 0.9196,0.3938 0.3498,0 0.6556,-0.1309 0.9196,-0.3938 z m -0.9207,-1.5774 c 0.4378,0 0.6567,0.22 0.6567,0.6578 0,0.4378 -0.2189,0.6567 -0.6567,0.6567 -0.4378,0 -0.6578,-0.2189 -0.6578,-0.6567 0.001,-0.4389 0.22,-0.6578 0.6578,-0.6578 z m 1.9063,1.6434 c -0.6567,0.5698 -1.1825,0.9416 -1.5774,1.1176 v 1.3145 l 0.5918,0.3938 c 1.0945,-0.2629 1.9052,-0.8316 2.431,-1.7083 l -0.2629,-0.7238 z m 0.066,-0.9207 0.1309,0.2629 1.2485,0.3938 0.5918,-0.4598 v -0.2629 c 0,-0.9625 -0.3069,-1.8172 -0.9196,-2.5641 h -0.7887 l -0.7227,1.0516 c 0.044,0.0891 0.1089,0.22 0.1969,0.3949 0.088,0.1749 0.1529,0.3509 0.1969,0.5258 0.0429,0.176 0.066,0.3949 0.066,0.6578 z"
     sodipodi:nodetypes="cssscscscsssscscsscscscssscccccccscccccccccccccccccsccccsccssssssscssscscccccccccccscccscc" /><path
     style="fill:#00082d;stroke-width:1.1"
     inkscape:connector-curvature="0"
     id="path3"
     d="m 198.3973,185.44975 c 1.2265,1.2265 1.8403,2.6939 1.8403,4.4033 0,1.7083 -0.6138,3.1768 -1.8403,4.4033 -1.2265,1.2254 -2.6939,1.8392 -4.4033,1.8392 -1.7083,0 -3.1768,-0.6138 -4.4033,-1.8392 -1.2276,-1.2265 -1.8403,-2.695 -1.8403,-4.4033 0,-1.7094 0.6127,-3.1768 1.8403,-4.4033 1.2265,-1.2265 2.695,-1.8403 4.4033,-1.8403 1.7094,0 3.1768,0.6138 4.4033,1.8403 z m -0.6897,8.1158 c 1.0296,-1.0285 1.5444,-2.2671 1.5444,-3.7125 0,-1.4465 -0.5159,-2.6829 -1.5444,-3.7136 -1.0296,-1.0285 -2.2671,-1.5444 -3.7125,-1.5444 -1.4454,0 -2.684,0.5159 -3.7125,1.5444 -1.0307,1.0307 -1.5444,2.2671 -1.5444,3.7136 0,1.4454 0.5137,2.684 1.5444,3.7125 1.0296,1.0307 2.2671,1.5444 3.7125,1.5444 1.4454,0 2.6829,-0.5137 3.7125,-1.5444 z m -0.4598,-6.9663 c 0.8976,0.8987 1.3475,1.9833 1.3475,3.2538 0,1.2705 -0.4499,2.3551 -1.3475,3.2527 -0.8987,0.8987 -1.9833,1.3475 -3.2538,1.3475 -1.2716,0 -2.3562,-0.4488 -3.2538,-1.3475 -0.8987,-0.8976 -1.3475,-1.9822 -1.3475,-3.2527 0,-1.2705 0.4488,-2.3551 1.3475,-3.2538 0.8976,-0.8965 1.9822,-1.3464 3.2538,-1.3464 1.2705,0 2.3551,0.4499 3.2538,1.3464 z m -5.225,3.3198 c 0,-0.2629 0.022,-0.4818 0.066,-0.6578 0.044,-0.1738 0.1089,-0.3498 0.198,-0.5258 0.0869,-0.1749 0.1529,-0.3058 0.1969,-0.3949 l -0.7227,-1.0516 h -0.7887 c -0.6138,0.7458 -0.9196,1.6005 -0.9196,2.5641 v 0.2629 l 0.5918,0.4598 1.2485,-0.3938 z m 1.0516,3.7455 0.5918,-0.3938 v -1.3145 l -0.1969,-0.1969 c -0.4818,-0.132 -0.8547,-0.3938 -1.1176,-0.7887 l -0.2629,-0.132 -1.1825,0.3938 -0.2629,0.7227 c 0.5247,0.8778 1.3354,1.4465 2.431,1.7094 z m -0.5258,-7.4921 -0.2629,0.7227 0.7227,1.0516 h 0.2629 c 0.1749,-0.0429 0.4158,-0.066 0.7227,-0.066 0.3058,0 0.5478,0.0231 0.7227,0.066 h 0.2629 l 0.7227,-1.0516 -0.2629,-0.7227 c -0.5258,-0.1749 -1.0087,-0.2629 -1.4454,-0.2629 -0.4378,0 -0.9196,0.088 -1.4454,0.2629 z m 2.3661,4.6002 c 0.2629,-0.2629 0.3938,-0.5687 0.3938,-0.9196 0,-0.3498 -0.1309,-0.6578 -0.3938,-0.9196 -0.2629,-0.2629 -0.5698,-0.3938 -0.9196,-0.3938 -0.3509,0 -0.6567,0.1309 -0.9196,0.3938 -0.2629,0.2629 -0.3938,0.5698 -0.3938,0.9196 0,0.3509 0.132,0.6567 0.3938,0.9196 0.2629,0.2629 0.5687,0.3949 0.9196,0.3949 0.3498,0 0.6567,-0.132 0.9196,-0.3949 z m -0.9207,-1.5774 c 0.4367,0 0.6578,0.22 0.6578,0.6578 0,0.4378 -0.22,0.6567 -0.6578,0.6567 -0.4378,0 -0.6567,-0.2189 -0.6567,-0.6567 0,-0.4378 0.2189,-0.6578 0.6567,-0.6578 z m 1.9063,1.6434 c -0.6567,0.5698 -1.1825,0.9427 -1.5774,1.1176 v 1.3145 l 0.5918,0.3938 c 1.0945,-0.2629 1.9063,-0.8316 2.4321,-1.7083 l -0.2629,-0.7227 z m 0.066,-0.9196 0.1309,0.2629 1.2496,0.3938 0.5918,-0.4598 v -0.2629 c 0,-0.9636 -0.3069,-1.8172 -0.9196,-2.5641 h -0.7887 l -0.7227,1.0516 c 0.044,0.0891 0.1089,0.22 0.198,0.3949 0.0869,0.1749 0.1529,0.3509 0.1969,0.5258 0.0407,0.176 0.0638,0.3938 0.0638,0.6578 z"
     sodipodi:nodetypes="sscssscsscscssscsccssscscscccccccscccccccccccccccccsccccscsscssscssssssscccccccccccscccccc" /></g></svg>
