<?xml version="1.0" encoding="UTF-8" standalone="no"?>
<!-- Generator: Adobe Illustrator 16.0.0, SVG Export Plug-In . SVG Version: 6.00 Build 0)  -->

<svg
   version="1.1"
   id="图层_1"
   x="0px"
   y="0px"
   width="139.76401"
   height="200"
   viewBox="0 0 139.764 200"
   enable-background="new 0 0 714 341"
   xml:space="preserve"
   sodipodi:docname="6p.svg"
   inkscape:version="1.3.2 (091e20ef0f, 2023-11-25)"
   xmlns:inkscape="http://www.inkscape.org/namespaces/inkscape"
   xmlns:sodipodi="http://sodipodi.sourceforge.net/DTD/sodipodi-0.dtd"
   xmlns="http://www.w3.org/2000/svg"
   xmlns:svg="http://www.w3.org/2000/svg"
   xmlns:rdf="http://www.w3.org/1999/02/22-rdf-syntax-ns#"
   xmlns:cc="http://creativecommons.org/ns#"
   xmlns:dc="http://purl.org/dc/elements/1.1/"><metadata
   id="metadata621"><rdf:RDF><cc:Work
       rdf:about=""><dc:format>image/svg+xml</dc:format><dc:type
         rdf:resource="http://purl.org/dc/dcmitype/StillImage" /></cc:Work></rdf:RDF></metadata><defs
   id="defs619" /><sodipodi:namedview
   pagecolor="#ffffff"
   bordercolor="#666666"
   borderopacity="1"
   objecttolerance="10"
   gridtolerance="10"
   guidetolerance="10"
   inkscape:pageopacity="0"
   inkscape:pageshadow="2"
   inkscape:window-width="1916"
   inkscape:window-height="1041"
   id="namedview617"
   showgrid="false"
   inkscape:zoom="1.7794406"
   inkscape:cx="122.7914"
   inkscape:cy="91.320834"
   inkscape:window-x="0"
   inkscape:window-y="18"
   inkscape:window-maximized="1"
   inkscape:current-layer="g1702"
   inkscape:showpageshadow="0"
   inkscape:pagecheckerboard="0"
   inkscape:deskcolor="#d1d1d1" />



















































































































































































































































































































<g
   transform="matrix(4.0332338,0,0,4.0332338,-837.84786,-611.50277)"
   id="g1702"><path
     inkscape:connector-curvature="0"
     id="path150"
     d="m 242.389,155.2 v 42.419 c 0,0.995 -0.35,1.842 -1.046,2.539 -0.697,0.697 -1.544,1.046 -2.54,1.046 H 211.32 c -0.996,0 -1.842,-0.349 -2.539,-1.046 -0.697,-0.697 -1.045,-1.544 -1.045,-2.539 V 155.2 c 0,-0.995 0.348,-1.842 1.045,-2.539 0.697,-0.697 1.543,-1.045 2.539,-1.045 h 27.483 c 0.996,0 1.842,0.349 2.54,1.045 0.696,0.697 1.046,1.544 1.046,2.539 z m -3.586,-1.792 H 211.32 c -0.518,0 -0.946,0.17 -1.284,0.508 -0.339,0.339 -0.508,0.768 -0.508,1.285 v 42.419 c 0,0.517 0.169,0.946 0.508,1.285 0.338,0.338 0.766,0.508 1.284,0.508 h 27.483 c 0.518,0 0.946,-0.17 1.285,-0.508 0.338,-0.339 0.508,-0.768 0.508,-1.285 V 155.2 c 0,-0.517 -0.169,-0.946 -0.508,-1.285 -0.339,-0.337 -0.767,-0.507 -1.285,-0.507 z" /><path
     style="fill:#e00080;stroke-width:1;fill-opacity:1;font-variation-settings:normal;opacity:1;vector-effect:none;stroke-linecap:butt;stroke-linejoin:miter;stroke-miterlimit:4;stroke-dasharray:none;stroke-dashoffset:0;stroke-opacity:1;-inkscape-stroke:none;stop-color:#000000;stop-opacity:1"
     inkscape:connector-curvature="0"
     id="path152"
     d="m 214.2182,179.66146 c 0,-1.5334 0.5478,-2.8468 1.6434,-3.9424 1.0945,-1.0945 2.409,-1.6434 3.9424,-1.6434 1.1836,0 2.2561,0.341 3.2208,1.0197 0.9625,0.6798 1.6434,1.5664 2.0372,2.6609 0.3938,-1.0945 1.0736,-1.9822 2.0372,-2.6609 0.9636,-0.6787 2.0372,-1.0197 3.2208,-1.0197 1.5334,0 2.8479,0.5489 3.9424,1.6434 1.0945,1.0956 1.6434,2.4101 1.6434,3.9424 0,1.1836 -0.3399,2.2572 -1.0186,3.2208 -0.6798,0.9636 -1.5664,1.6434 -2.662,2.0372 1.0956,0.3938 1.9822,1.0747 2.662,2.0383 0.6787,0.9636 1.0186,2.0372 1.0186,3.2197 0,1.5345 -0.5489,2.849 -1.6434,3.9424 -1.0956,1.0945 -2.409,1.6434 -3.9424,1.6434 -1.1836,0 -2.2572,-0.3399 -3.2208,-1.0186 -0.9636,-0.6787 -1.6434,-1.5653 -2.0372,-2.662 -0.3938,1.0967 -1.0747,1.9833 -2.0372,2.662 -0.9636,0.6787 -2.0372,1.0186 -3.2208,1.0186 -1.5345,0 -2.8479,-0.5489 -3.9424,-1.6434 -1.0956,-1.0945 -1.6434,-2.4079 -1.6434,-3.9424 0,-1.1836 0.3388,-2.2561 1.0186,-3.2197 0.6787,-0.9636 1.5664,-1.6434 2.662,-2.0383 -1.0956,-0.3938 -1.9833,-1.0736 -2.662,-2.0372 -0.6798,-0.9625 -1.0186,-2.0372 -1.0186,-3.2208 z m 2.3331,-3.2527 c -0.8976,0.8976 -1.3475,1.9833 -1.3475,3.2527 0,1.2716 0.4488,2.3562 1.3475,3.2538 0.8976,0.8976 1.9822,1.3464 3.2538,1.3464 1.2705,0 2.3551,-0.4488 3.2538,-1.3464 0.8976,-0.8976 1.3475,-1.9822 1.3475,-3.2538 0,-1.2694 -0.4499,-2.3551 -1.3475,-3.2527 -0.8987,-0.8976 -1.9833,-1.3475 -3.2538,-1.3475 -1.2727,0 -2.3562,0.451 -3.2538,1.3475 z m 0,10.516 c -0.8976,0.8987 -1.3475,1.9833 -1.3475,3.2538 0,1.2705 0.4488,2.3562 1.3475,3.2538 0.8976,0.8976 1.9822,1.3475 3.2538,1.3475 1.2705,0 2.3551,-0.4499 3.2538,-1.3475 0.8976,-0.8976 1.3475,-1.9822 1.3475,-3.2538 0,-1.2705 -0.4499,-2.3551 -1.3475,-3.2538 -0.8987,-0.8976 -1.9833,-1.3475 -3.2538,-1.3475 -1.2727,-0.001 -2.3562,0.4499 -3.2538,1.3475 z m 5.159,-2.0053 c 1.6203,0.6138 2.7379,1.7314 3.3517,3.3517 0.6127,-1.6214 1.7303,-2.7379 3.3517,-3.3517 -1.6214,-0.6127 -2.739,-1.7303 -3.3517,-3.3517 -0.6138,1.6214 -1.7314,2.739 -3.3517,3.3517 z m 5.3559,-8.5107 c -0.8987,0.8976 -1.3475,1.9833 -1.3475,3.2527 0,1.2716 0.4488,2.3562 1.3475,3.2538 0.8976,0.8976 1.9822,1.3464 3.2538,1.3464 1.2705,0 2.3551,-0.4488 3.2538,-1.3464 0.8965,-0.8976 1.3475,-1.9822 1.3475,-3.2538 0,-1.2694 -0.4499,-2.3551 -1.3475,-3.2527 -0.8987,-0.8976 -1.9833,-1.3475 -3.2538,-1.3475 -1.2716,0 -2.3562,0.451 -3.2538,1.3475 z m 0,10.516 c -0.8987,0.8987 -1.3475,1.9833 -1.3475,3.2538 0,1.2705 0.4488,2.3562 1.3475,3.2538 0.8976,0.8976 1.9822,1.3475 3.2538,1.3475 1.2705,0 2.3551,-0.4499 3.2538,-1.3475 0.8965,-0.8976 1.3475,-1.9822 1.3475,-3.2538 0,-1.2705 -0.4499,-2.3551 -1.3475,-3.2538 -0.8987,-0.8976 -1.9833,-1.3475 -3.2538,-1.3475 -1.2716,-0.001 -2.3562,0.4499 -3.2538,1.3475 z" /><path
     style="fill:#000000;stroke-width:1.1;fill-opacity:1"
     inkscape:connector-curvature="0"
     id="path154"
     d="m 215.8616,166.5767 c -1.0956,-1.0945 -1.6434,-2.409 -1.6434,-3.9424 0,-1.5334 0.5478,-2.8479 1.6434,-3.9435 1.0945,-1.0945 2.409,-1.6434 3.9424,-1.6434 1.1836,0 2.2561,0.3399 3.2208,1.0186 0.9625,0.6809 1.6434,1.5675 2.0372,2.662 0.3938,-1.0945 1.0736,-1.9811 2.0372,-2.662 0.9636,-0.6787 2.0372,-1.0186 3.2208,-1.0186 1.5334,0 2.8479,0.5489 3.9424,1.6434 1.0945,1.0956 1.6434,2.4101 1.6434,3.9435 0,1.5345 -0.5489,2.8479 -1.6434,3.9424 -1.0956,1.0956 -2.409,1.6434 -3.9424,1.6434 -1.1836,0 -2.2572,-0.3388 -3.2208,-1.0186 -0.9636,-0.6787 -1.6434,-1.5653 -2.0372,-2.6609 -0.3938,1.0956 -1.0747,1.9833 -2.0372,2.6609 -0.9636,0.6798 -2.0372,1.0186 -3.2208,1.0186 -1.5334,-0.001 -2.8479,-0.5478 -3.9424,-1.6434 z m 0.6897,-7.1973 c -0.8976,0.8987 -1.3475,1.9833 -1.3475,3.2538 0,1.2716 0.4488,2.3551 1.3475,3.2527 0.8976,0.8987 1.9822,1.3475 3.2538,1.3475 1.2705,0 2.3551,-0.4488 3.2538,-1.3475 0.8976,-0.8976 1.3475,-1.9811 1.3475,-3.2527 0,-1.2705 -0.4499,-2.3551 -1.3475,-3.2538 -0.8987,-0.8976 -1.9833,-1.3475 -3.2538,-1.3475 -1.2727,0.001 -2.3562,0.4499 -3.2538,1.3475 z m 0.7227,5.7849 c -0.7227,-0.7238 -1.0846,-1.5664 -1.0846,-2.53 0,-0.9636 0.3619,-1.8073 1.0846,-2.5311 0.7238,-0.7227 1.5664,-1.0835 2.53,-1.0835 0.9636,0 1.8073,0.3608 2.53,1.0835 0.7227,0.7238 1.0846,1.5675 1.0846,2.5311 0,0.9636 -0.3619,1.8073 -1.0846,2.53 -0.7227,0.7227 -1.5664,1.0835 -2.53,1.0835 -0.9636,0 -1.8062,-0.3619 -2.53,-1.0835 z m 0.033,-1.8744 c 0.4378,-0.0869 0.7238,-0.3058 0.8547,-0.6567 0,-0.2629 0.0539,-0.5038 0.1639,-0.7238 0.1089,-0.2189 0.1859,-0.4598 0.2299,-0.7227 l -0.3949,-0.5258 h -0.5918 c -0.4818,0.5698 -0.7227,1.2276 -0.7227,1.9712 v 0.2629 z m 2.0372,0.9207 c -0.3509,-0.132 -0.6578,-0.3498 -0.9196,-0.6567 l -0.3938,-0.198 -0.5918,0.198 -0.198,0.5918 c 0.5258,0.7447 1.1605,1.2056 1.9063,1.3794 l 0.5258,-0.3289 v -0.6567 z m 0.9856,-3.1548 0.4598,-0.066 0.3949,-0.5258 -0.1969,-0.5269 c -0.3509,-0.1738 -0.7458,-0.2629 -1.1836,-0.2629 -0.4378,0 -0.8327,0.0891 -1.1825,0.2629 l -0.1969,0.5269 0.3938,0.5258 0.4598,0.066 c 0.088,-0.0429 0.2629,-0.066 0.5258,-0.066 0.2629,0 0.4378,0.0231 0.5258,0.066 z m -1.2155,0.8877 c -0.1969,0.1969 -0.2959,0.4268 -0.2959,0.6897 0,0.2629 0.0979,0.4928 0.2959,0.6897 0.198,0.1969 0.4279,0.2959 0.6897,0.2959 0.2629,0 0.4928,-0.099 0.6897,-0.2959 0.1969,-0.1969 0.2959,-0.4268 0.2959,-0.6897 0,-0.2629 -0.0979,-0.4928 -0.2959,-0.6897 -0.198,-0.1969 -0.4268,-0.2959 -0.6897,-0.2959 -0.2629,0 -0.4928,0.099 -0.6897,0.2959 z m 0.6897,1.0186 c -0.22,0 -0.3289,-0.1089 -0.3289,-0.3278 0,-0.2189 0.1089,-0.3289 0.3289,-0.3289 0.2189,0 0.3289,0.11 0.3289,0.3289 0,0.2189 -0.11,0.3278 -0.3289,0.3278 z m 1.7754,0.3938 c -0.5258,0.22 -1.0747,0.6149 -1.6434,1.1836 v 0.6567 l 0.5258,0.3289 c 0.7447,-0.1749 1.3794,-0.6347 1.9052,-1.3794 l -0.1969,-0.5918 z m -0.5269,-2.1681 c 0.044,0.2629 0.1199,0.5038 0.2299,0.7227 0.1089,0.22 0.1639,0.4598 0.1639,0.7238 l 0.2629,0.4598 0.5918,0.1969 0.4598,-0.3938 v -0.2629 c 0,-0.7447 -0.2409,-1.4014 -0.7227,-1.9712 h -0.5918 z m 6.0137,-1.8084 c -0.8987,0.8987 -1.3475,1.9833 -1.3475,3.2538 0,1.2716 0.4488,2.3551 1.3475,3.2527 0.8976,0.8987 1.9822,1.3475 3.2538,1.3475 1.2705,0 2.3551,-0.4488 3.2538,-1.3475 0.8965,-0.8976 1.3475,-1.9811 1.3475,-3.2527 0,-1.2705 -0.4499,-2.3551 -1.3475,-3.2538 -0.8987,-0.8976 -1.9833,-1.3475 -3.2538,-1.3475 -1.2716,0.001 -2.3562,0.4499 -3.2538,1.3475 z m 0.7238,5.7849 c -0.7227,-0.7238 -1.0846,-1.5664 -1.0846,-2.53 0,-0.9636 0.3619,-1.8073 1.0846,-2.5311 0.7227,-0.7227 1.5664,-1.0835 2.53,-1.0835 0.9625,0 1.8073,0.3608 2.53,1.0835 0.7238,0.7238 1.0846,1.5675 1.0846,2.5311 0,0.9636 -0.3619,1.8073 -1.0846,2.53 -0.7227,0.7227 -1.5664,1.0835 -2.53,1.0835 -0.9647,0 -1.8073,-0.3619 -2.53,-1.0835 z m 0.0319,-1.8744 c 0.4367,-0.0869 0.7227,-0.3058 0.8547,-0.6567 0,-0.2629 0.0539,-0.5038 0.1639,-0.7238 0.1089,-0.2189 0.1859,-0.4598 0.2299,-0.7227 l -0.3938,-0.5258 h -0.5918 c -0.4818,0.5698 -0.7227,1.2276 -0.7227,1.9712 v 0.2629 z m 2.0372,0.9207 c -0.3509,-0.132 -0.6567,-0.3498 -0.9196,-0.6567 l -0.3938,-0.198 -0.5918,0.198 -0.1969,0.5918 c 0.5258,0.7447 1.1605,1.2056 1.9052,1.3794 l 0.5258,-0.3289 v -0.6567 z m 0.9867,-3.1548 0.4598,-0.066 0.3938,-0.5258 -0.1969,-0.5269 c -0.3509,-0.1738 -0.7458,-0.2629 -1.1825,-0.2629 -0.4378,0 -0.8327,0.0891 -1.1836,0.2629 l -0.1969,0.5269 0.3938,0.5258 0.4598,0.066 c 0.088,-0.0429 0.2629,-0.066 0.5258,-0.066 0.264,0 0.4378,0.0231 0.5269,0.066 z m -1.2166,0.8877 c -0.1969,0.1969 -0.2959,0.4268 -0.2959,0.6897 0,0.2629 0.099,0.4928 0.2959,0.6897 0.1969,0.1969 0.4268,0.2959 0.6897,0.2959 0.2629,0 0.4928,-0.099 0.6897,-0.2959 0.198,-0.1969 0.2959,-0.4268 0.2959,-0.6897 0,-0.2629 -0.0979,-0.4928 -0.2959,-0.6897 -0.1969,-0.1969 -0.4268,-0.2959 -0.6897,-0.2959 -0.2618,0 -0.4917,0.099 -0.6897,0.2959 z m 0.6908,1.0186 c -0.22,0 -0.3289,-0.1089 -0.3289,-0.3278 0,-0.2189 0.1089,-0.3289 0.3289,-0.3289 0.2189,0 0.3289,0.11 0.3289,0.3289 0,0.2189 -0.11,0.3278 -0.3289,0.3278 z m 1.7743,0.3938 c -0.5258,0.22 -1.0736,0.6149 -1.6434,1.1836 v 0.6567 l 0.5258,0.3289 c 0.7447,-0.1749 1.3794,-0.6347 1.9063,-1.3794 l -0.1969,-0.5918 z m -0.5258,-2.1681 c 0.044,0.2629 0.1199,0.5038 0.2299,0.7227 0.11,0.22 0.165,0.4598 0.165,0.7238 l 0.2629,0.4598 0.5918,0.1969 0.4598,-0.3938 v -0.2629 c 0,-0.7447 -0.2409,-1.4014 -0.7227,-1.9712 h -0.5918 z" /><path
     style="fill:#e00080;stroke-width:1;font-variation-settings:normal;opacity:1;vector-effect:none;fill-opacity:1;stroke-linecap:butt;stroke-linejoin:miter;stroke-miterlimit:4;stroke-dasharray:none;stroke-dashoffset:0;stroke-opacity:1;-inkscape-stroke:none;stop-color:#000000;stop-opacity:1"
     inkscape:connector-curvature="0"
     id="path156"
     d="m 217.274,182.19251 c -0.7227,-0.7227 -1.0846,-1.5664 -1.0846,-2.53 0,-0.9625 0.3619,-1.8073 1.0846,-2.53 0.7238,-0.7227 1.5664,-1.0846 2.53,-1.0846 0.9636,0 1.8073,0.3619 2.53,1.0846 0.7227,0.7227 1.0846,1.5664 1.0846,2.53 0,0.9636 -0.3619,1.8073 -1.0846,2.53 -0.7227,0.7238 -1.5664,1.0846 -2.53,1.0846 -0.9636,0 -1.8062,-0.3619 -2.53,-1.0846 z m 0,10.5149 c -0.7227,-0.7227 -1.0846,-1.5653 -1.0846,-2.53 0,-0.9636 0.3619,-1.8073 1.0846,-2.53 0.7238,-0.7227 1.5664,-1.0846 2.53,-1.0846 0.9636,0 1.8073,0.3619 2.53,1.0846 0.7227,0.7227 1.0846,1.5664 1.0846,2.53 0,0.9636 -0.3619,1.8073 -1.0846,2.53 -0.7227,0.7238 -1.5664,1.0846 -2.53,1.0846 -0.9636,0 -1.8062,-0.3608 -2.53,-1.0846 z m 0.033,-12.3882 c 0.4378,-0.088 0.7238,-0.3058 0.8547,-0.6578 0,-0.2629 0.0539,-0.5027 0.1639,-0.7227 0.1089,-0.2189 0.1859,-0.4598 0.2299,-0.7238 l -0.3949,-0.5258 h -0.5918 c -0.4818,0.5698 -0.7227,1.2265 -0.7227,1.9712 v 0.2629 z m 0,10.5149 c 0.4378,-0.0869 0.7238,-0.3058 0.8547,-0.6567 0,-0.2629 0.0539,-0.5038 0.1639,-0.7227 0.1089,-0.2189 0.1859,-0.4598 0.2299,-0.7227 l -0.3949,-0.5258 h -0.5918 c -0.4818,0.5709 -0.7227,1.2276 -0.7227,1.9712 v 0.2629 z m 2.0372,-9.5942 c -0.3509,-0.1309 -0.6578,-0.3498 -0.9196,-0.6578 l -0.3938,-0.1969 -0.5918,0.1969 -0.198,0.5918 c 0.5258,0.7458 1.1605,1.2056 1.9063,1.3794 l 0.5258,-0.3278 v -0.6578 z m 0,10.5149 c -0.3509,-0.132 -0.6578,-0.3498 -0.9196,-0.6578 l -0.3938,-0.1969 -0.5918,0.1969 -0.198,0.5918 c 0.5258,0.7458 1.1605,1.2056 1.9063,1.3805 l 0.5258,-0.3289 v -0.6578 z m 0.9856,-13.6697 0.4598,-0.066 0.3949,-0.5269 -0.1969,-0.5258 c -0.3509,-0.1749 -0.7458,-0.2629 -1.1836,-0.2629 -0.4378,0 -0.8327,0.088 -1.1825,0.2629 l -0.1969,0.5258 0.3938,0.5269 0.4598,0.066 c 0.088,-0.0429 0.2629,-0.066 0.5258,-0.066 0.2629,0 0.4378,0.0231 0.5258,0.066 z m 0,10.5149 0.4598,-0.066 0.3949,-0.5258 -0.1969,-0.5258 c -0.3509,-0.1749 -0.7458,-0.2629 -1.1836,-0.2629 -0.4378,0 -0.8327,0.088 -1.1825,0.2629 l -0.1969,0.5258 0.3938,0.5258 0.4598,0.066 c 0.088,-0.0429 0.2629,-0.066 0.5258,-0.066 0.2629,0 0.4378,0.0231 0.5258,0.066 z m -1.2155,-9.6283 c -0.1969,0.1969 -0.2959,0.4279 -0.2959,0.6897 0,0.2629 0.0979,0.4928 0.2959,0.6897 0.198,0.198 0.4279,0.2959 0.6897,0.2959 0.2629,0 0.4928,-0.0979 0.6897,-0.2959 0.1969,-0.1969 0.2959,-0.4268 0.2959,-0.6897 0,-0.2629 -0.0979,-0.4928 -0.2959,-0.6897 -0.198,-0.1969 -0.4268,-0.2959 -0.6897,-0.2959 -0.2629,0 -0.4928,0.099 -0.6897,0.2959 z m 0,10.516 c -0.1969,0.198 -0.2959,0.4268 -0.2959,0.6897 0,0.2629 0.0979,0.4928 0.2959,0.6897 0.198,0.1969 0.4279,0.2959 0.6897,0.2959 0.2629,0 0.4928,-0.0979 0.6897,-0.2959 0.1969,-0.198 0.2959,-0.4268 0.2959,-0.6897 0,-0.2629 -0.0979,-0.4928 -0.2959,-0.6897 -0.1969,-0.1969 -0.4268,-0.2959 -0.6897,-0.2959 -0.2629,0 -0.4928,0.0979 -0.6897,0.2959 z m 0.6897,-9.4963 c -0.22,0 -0.3289,-0.11 -0.3289,-0.3289 0,-0.2189 0.1089,-0.3278 0.3289,-0.3278 0.2189,0 0.3289,0.11 0.3289,0.3278 0,0.2189 -0.11,0.3289 -0.3289,0.3289 z m 0,10.5149 c -0.22,0 -0.3289,-0.1089 -0.3289,-0.3289 0,-0.2189 0.1089,-0.3289 0.3289,-0.3289 0.2189,0 0.3289,0.11 0.3289,0.3289 0,0.22 -0.11,0.3289 -0.3289,0.3289 z m 1.7754,-10.1211 c -0.5258,0.22 -1.0747,0.6149 -1.6434,1.1836 v 0.6578 l 0.5258,0.3278 c 0.7447,-0.1749 1.3794,-0.6347 1.9052,-1.3794 l -0.1969,-0.5918 z m 0,10.5149 c -0.5258,0.22 -1.0747,0.6138 -1.6434,1.1825 v 0.6578 l 0.5258,0.3289 c 0.7447,-0.1749 1.3794,-0.6347 1.9052,-1.3805 l -0.1969,-0.5918 z m -0.5269,-12.6841 c 0.044,0.2629 0.1199,0.5038 0.2299,0.7238 0.1089,0.22 0.1639,0.4598 0.1639,0.7227 l 0.2629,0.4598 0.5918,0.1969 0.4598,-0.3938 v -0.2629 c 0,-0.7447 -0.2409,-1.4014 -0.7227,-1.9712 h -0.5918 z m 0,10.516 c 0.044,0.2629 0.1199,0.5038 0.2299,0.7227 0.1089,0.22 0.1639,0.4598 0.1639,0.7227 l 0.2629,0.4598 0.5918,0.1969 0.4598,-0.3938 v -0.2629 c 0,-0.7447 -0.2409,-1.4014 -0.7227,-1.9712 h -0.5918 z m 6.7375,-6.5395 c -0.7227,-0.7227 -1.0846,-1.5664 -1.0846,-2.53 0,-0.9625 0.3619,-1.8073 1.0846,-2.53 0.7227,-0.7227 1.5664,-1.0846 2.53,-1.0846 0.9625,0 1.8073,0.3619 2.53,1.0846 0.7238,0.7227 1.0846,1.5664 1.0846,2.53 0,0.9636 -0.3619,1.8073 -1.0846,2.53 -0.7227,0.7238 -1.5664,1.0846 -2.53,1.0846 -0.9647,0 -1.8073,-0.3619 -2.53,-1.0846 z m 0,10.5149 c -0.7227,-0.7227 -1.0846,-1.5653 -1.0846,-2.53 0,-0.9636 0.3619,-1.8073 1.0846,-2.53 0.7227,-0.7227 1.5664,-1.0846 2.53,-1.0846 0.9625,0 1.8073,0.3619 2.53,1.0846 0.7238,0.7227 1.0846,1.5664 1.0846,2.53 0,0.9636 -0.3619,1.8073 -1.0846,2.53 -0.7227,0.7238 -1.5664,1.0846 -2.53,1.0846 -0.9647,0 -1.8073,-0.3608 -2.53,-1.0846 z m 0.0319,-12.3882 c 0.4367,-0.088 0.7227,-0.3058 0.8547,-0.6578 0,-0.2629 0.0539,-0.5027 0.1639,-0.7227 0.1089,-0.2189 0.1859,-0.4598 0.2299,-0.7238 l -0.3938,-0.5258 h -0.5918 c -0.4818,0.5698 -0.7227,1.2265 -0.7227,1.9712 v 0.2629 z m 0,10.5149 c 0.4367,-0.0869 0.7227,-0.3058 0.8547,-0.6567 0,-0.2629 0.0539,-0.5038 0.1639,-0.7227 0.1089,-0.2189 0.1859,-0.4598 0.2299,-0.7227 l -0.3938,-0.5258 h -0.5918 c -0.4818,0.5709 -0.7227,1.2276 -0.7227,1.9712 v 0.2629 z m 2.0372,-9.5942 c -0.3509,-0.1309 -0.6567,-0.3498 -0.9196,-0.6578 l -0.3938,-0.1969 -0.5918,0.1969 -0.1969,0.5918 c 0.5258,0.7458 1.1605,1.2056 1.9052,1.3794 l 0.5258,-0.3278 v -0.6578 z m 0,10.5149 c -0.3509,-0.132 -0.6567,-0.3498 -0.9196,-0.6578 l -0.3938,-0.1969 -0.5918,0.1969 -0.1969,0.5918 c 0.5258,0.7458 1.1605,1.2056 1.9052,1.3805 l 0.5258,-0.3289 v -0.6578 z m 0.9867,-13.6697 0.4598,-0.066 0.3938,-0.5269 -0.1969,-0.5258 c -0.3509,-0.1749 -0.7458,-0.2629 -1.1825,-0.2629 -0.4378,0 -0.8327,0.088 -1.1836,0.2629 l -0.1969,0.5258 0.3938,0.5269 0.4598,0.066 c 0.088,-0.0429 0.2629,-0.066 0.5258,-0.066 0.264,0 0.4378,0.0231 0.5269,0.066 z m 0,10.5149 0.4598,-0.066 0.3938,-0.5258 -0.1969,-0.5258 c -0.3509,-0.1749 -0.7458,-0.2629 -1.1825,-0.2629 -0.4378,0 -0.8327,0.088 -1.1836,0.2629 l -0.1969,0.5258 0.3938,0.5258 0.4598,0.066 c 0.088,-0.0429 0.2629,-0.066 0.5258,-0.066 0.264,0 0.4378,0.0231 0.5269,0.066 z m -1.2166,-9.6283 c -0.1969,0.1969 -0.2959,0.4279 -0.2959,0.6897 0,0.2629 0.099,0.4928 0.2959,0.6897 0.1969,0.198 0.4268,0.2959 0.6897,0.2959 0.2629,0 0.4928,-0.0979 0.6897,-0.2959 0.198,-0.1969 0.2959,-0.4268 0.2959,-0.6897 0,-0.2629 -0.0979,-0.4928 -0.2959,-0.6897 -0.1969,-0.1969 -0.4268,-0.2959 -0.6897,-0.2959 -0.2618,0 -0.4917,0.099 -0.6897,0.2959 z m 0,10.516 c -0.1969,0.198 -0.2959,0.4268 -0.2959,0.6897 0,0.2629 0.099,0.4928 0.2959,0.6897 0.1969,0.1969 0.4268,0.2959 0.6897,0.2959 0.2629,0 0.4928,-0.0979 0.6897,-0.2959 0.198,-0.198 0.2959,-0.4268 0.2959,-0.6897 0,-0.2629 -0.0979,-0.4928 -0.2959,-0.6897 -0.1969,-0.1969 -0.4268,-0.2959 -0.6897,-0.2959 -0.2618,0 -0.4917,0.0979 -0.6897,0.2959 z m 0.6908,-9.4963 c -0.22,0 -0.3289,-0.11 -0.3289,-0.3289 0,-0.2189 0.1089,-0.3278 0.3289,-0.3278 0.2189,0 0.3289,0.11 0.3289,0.3278 0,0.2189 -0.11,0.3289 -0.3289,0.3289 z m 0,10.5149 c -0.22,0 -0.3289,-0.1089 -0.3289,-0.3289 0,-0.2189 0.1089,-0.3289 0.3289,-0.3289 0.2189,0 0.3289,0.11 0.3289,0.3289 0,0.22 -0.11,0.3289 -0.3289,0.3289 z m 1.7743,-10.1211 c -0.5258,0.22 -1.0736,0.6149 -1.6434,1.1836 v 0.6578 l 0.5258,0.3278 c 0.7447,-0.1749 1.3794,-0.6347 1.9063,-1.3794 l -0.1969,-0.5918 z m 0,10.5149 c -0.5258,0.22 -1.0736,0.6138 -1.6434,1.1825 v 0.6578 l 0.5258,0.3289 c 0.7447,-0.1749 1.3794,-0.6347 1.9063,-1.3805 l -0.1969,-0.5918 z m -0.5258,-12.6841 c 0.044,0.2629 0.1199,0.5038 0.2299,0.7238 0.11,0.22 0.165,0.4598 0.165,0.7227 l 0.2629,0.4598 0.5918,0.1969 0.4598,-0.3938 v -0.2629 c 0,-0.7447 -0.2409,-1.4014 -0.7227,-1.9712 h -0.5918 z m 0,10.516 c 0.044,0.2629 0.1199,0.5038 0.2299,0.7227 0.11,0.22 0.165,0.4598 0.165,0.7227 l 0.2629,0.4598 0.5918,0.1969 0.4598,-0.3938 v -0.2629 c 0,-0.7447 -0.2409,-1.4014 -0.7227,-1.9712 h -0.5918 z" /></g></svg>
